<svg width="160" height="160" viewBox="0 0 160 160" fill="none" xmlns="http://www.w3.org/2000/svg">
<g filter="url(#filter0_d_47_180)">
<path d="M136.879 121.96L89.8242 74.9057L34.8492 19.9307H30.5529L29.6756 22.1598C27.3602 28.0436 26.3709 34.0614 26.8151 39.5619C27.3213 45.8319 29.7033 51.2603 33.7038 55.2608L76.6202 98.1772L82.2808 92.5166L121.957 136.882C125.904 140.829 132.697 141.063 136.879 136.882C140.993 132.768 140.993 126.074 136.879 121.96ZM56.733 88.2374L23.1211 121.849C19.0073 125.963 19.0073 132.657 23.1211 136.771C27.029 140.679 33.7896 141.024 38.0426 136.771L71.6548 103.159L56.733 88.2374ZM134.903 39.9109L115.836 58.9773L110.862 54.0034L129.929 34.9368L124.955 29.9629L105.888 49.0293L100.915 44.0554L119.981 24.9889L115.008 20.0153L90.138 44.8848C87.0978 47.9225 85.2775 51.97 85.0221 56.2602C84.9572 57.3479 84.7106 58.4179 84.3016 59.4355L100.457 75.5907C101.475 75.1813 102.545 74.935 103.632 74.87C107.922 74.615 111.97 72.7948 115.008 69.7543L139.877 44.885L134.903 39.9109Z" fill="white"/>
</g>
<defs>
<filter id="filter0_d_47_180" x="0.525824" y="0.456488" width="158.948" height="158.948" filterUnits="userSpaceOnUse" color-interpolation-filters="sRGB">
<feFlood flood-opacity="0" result="BackgroundImageFix"/>
<feColorMatrix in="SourceAlpha" type="matrix" values="0 0 0 0 0 0 0 0 0 0 0 0 0 0 0 0 0 0 127 0" result="hardAlpha"/>
<feOffset/>
<feGaussianBlur stdDeviation="9.73709"/>
<feComposite in2="hardAlpha" operator="out"/>
<feColorMatrix type="matrix" values="0 0 0 0 1 0 0 0 0 1 0 0 0 0 1 0 0 0 1 0"/>
<feBlend mode="normal" in2="BackgroundImageFix" result="effect1_dropShadow_47_180"/>
<feBlend mode="normal" in="SourceGraphic" in2="effect1_dropShadow_47_180" result="shape"/>
</filter>
</defs>
</svg>
