<svg width="112" height="70" viewBox="0 0 112 70" fill="none" xmlns="http://www.w3.org/2000/svg">
<g clip-path="url(#clip0_2991_4240)">
<path d="M63.4944 0.105469C63.4944 0.105469 53.1115 3.74859 54.0222 12.2579C54.0222 12.2579 47.1524 14.5999 49.13 20.4289C49.13 20.4289 41.6356 22.9531 46.6059 29.1464C46.6059 29.1464 41.2713 31.9307 45.6951 37.1873C45.6951 37.1873 43.9256 50.4066 84.6245 48.6631C63.9107 27.8192 63.4944 0.105469 63.4944 0.105469Z" fill="#682335"/>
<path d="M54.4907 63.5972C54.3866 63.5972 54.2825 63.5799 54.1784 63.5452C46.6579 60.7608 42.052 56.7013 42.9888 53.6307C43.8736 50.8723 48.7918 50.4039 56.5204 52.3816C56.9888 52.5117 57.275 52.9801 57.1709 53.4485C57.0408 53.9169 56.5724 54.2032 56.104 54.0991C47.7509 51.9653 44.9665 53.1883 44.6802 54.1512C44.2118 55.6604 47.4646 59.1995 54.8029 61.9058C55.2453 62.0619 55.4795 62.5824 55.3234 63.0248C55.1933 63.3891 54.855 63.5972 54.4907 63.5972Z" fill="#F2AC30"/>
<path d="M56.4683 61.5191C57.0408 61.4671 57.6393 61.5191 58.2379 61.7013C58.8364 61.9095 59.4089 62.2738 59.8512 62.7682C60.736 63.8091 60.9182 65.2924 60.4498 66.4373C60.0074 67.6083 58.9665 68.4671 57.8735 68.7273C56.8066 69.0136 55.7137 68.8314 54.8029 68.4411C55.8178 68.337 56.7546 68.1548 57.4572 67.6864C58.1858 67.244 58.6282 66.5935 58.7583 65.9169C58.8884 65.2143 58.7063 64.5637 58.3159 64.1214C57.8996 63.679 57.275 63.4188 56.4683 63.2886L56.4163 63.2626C55.9479 63.1846 55.6096 62.7422 55.7137 62.2478C55.7657 61.8574 56.078 61.5712 56.4683 61.5191Z" fill="#BF6E1D"/>
<path d="M54.4907 61.4098C55.0632 61.3577 55.6617 61.4098 56.2603 61.5919C56.8588 61.8001 57.4313 62.1644 57.8736 62.6848C58.7584 63.6997 58.9406 65.183 58.4722 66.328C58.0038 67.499 56.9889 68.3577 55.8959 68.6179C54.803 68.9042 53.7361 68.722 52.8253 68.3317C53.8142 68.2536 54.751 68.0454 55.4796 67.6031C56.2082 67.1607 56.6506 66.4841 56.7807 65.8075C56.9108 65.1309 56.7287 64.4544 56.3123 64.012C55.922 63.5696 55.2974 63.3094 54.4907 63.1793H54.4387C53.9703 63.0752 53.632 62.6328 53.7101 62.1644C53.7881 61.748 54.1004 61.4618 54.4907 61.4098Z" fill="#DD8924"/>
<path d="M53.2156 61.4098C53.7881 61.3577 54.3866 61.4098 54.9851 61.5919C55.5836 61.8001 56.1821 62.1644 56.5985 62.6848C57.4832 63.6997 57.6654 65.183 57.197 66.328C56.7546 67.499 55.7137 68.3577 54.6208 68.6179C53.5539 68.9042 52.487 68.722 51.5762 68.3317C52.565 68.2536 53.5018 68.0454 54.2044 67.6031C54.9331 67.1607 55.3754 66.4841 55.5055 65.8075C55.6357 65.1309 55.4535 64.4544 55.0632 64.012C54.6728 63.5696 54.0223 63.3094 53.2156 63.1793H53.1896C52.6951 63.0752 52.3829 62.6328 52.4609 62.1644C52.513 61.748 52.8513 61.4618 53.2156 61.4098Z" fill="#F2AC30"/>
<path d="M40.9852 36.8724L0.18219 24.668C0.18219 24.668 3.30487 39.2144 13.1933 40.7758C23.0558 42.3371 42.2863 40.7758 42.2863 40.7758L40.9852 36.8724Z" fill="#EF3F1D"/>
<path d="M41.7138 38.4088L5.43866 33.0742C5.43866 33.0742 9.9145 45.0705 18.5019 45.1746C27.1152 45.2787 43.3011 41.5575 43.3011 41.5575L41.7138 38.4088Z" fill="#FF684A"/>
<path d="M92.8996 46.1371C93.7583 48.2709 102.007 44.8359 110.855 44.8359H93.7063L92.8996 46.1371Z" fill="#D17D19"/>
<path d="M94.0706 36.7969C108.149 36.7969 110.491 41.0906 110.855 44.8378H94.2528L94.0706 36.7969Z" fill="#FFCD40"/>
<path d="M95.5279 36.8229C95.0595 36.8229 94.5737 36.8142 94.0706 36.7969L94.2528 44.8378H98.1301C98.1301 44.7337 98.1301 44.6209 98.1301 44.4995C98.1301 41.637 97.1673 38.9828 95.5279 36.8229Z" fill="#ED9B2F"/>
<path d="M106.9 39.0078C105.442 40.1528 104.532 41.9223 104.532 43.9C104.532 44.2123 104.558 44.5245 104.61 44.8368H110.855C110.673 42.781 109.866 40.5952 106.9 39.0078Z" fill="#252538"/>
<path d="M104.323 39.0101C104.271 39.4265 102.97 39.6087 101.409 39.4005C99.8736 39.1923 98.6506 38.6979 98.7286 38.2815C98.7807 37.8652 100.082 37.683 101.617 37.8912C103.152 38.0994 104.375 38.5938 104.323 39.0101Z" fill="#FFDC83"/>
<path d="M46.0594 64.7691C45.9553 64.7691 45.8513 64.7518 45.7472 64.7171C38.2007 61.9327 33.5947 57.8732 34.5576 54.8026C35.4163 52.0442 40.3605 51.5758 48.0892 53.5535C48.5576 53.6836 48.8438 54.152 48.7137 54.6204C48.5836 55.0888 48.1152 55.3751 47.6468 55.271C39.2936 53.1372 36.5353 54.3602 36.223 55.323C35.7546 56.8323 39.0074 60.3714 46.3457 63.0777C46.8141 63.2338 47.0483 63.7282 46.8661 64.1966C46.736 64.5609 46.3977 64.7691 46.0594 64.7691Z" fill="#F2AC30"/>
<path d="M48.0371 62.6871C48.5836 62.6351 49.2081 62.6871 49.8066 62.8693C50.4052 63.0774 50.9777 63.4417 51.42 63.9362C52.3048 64.9771 52.4609 66.4603 51.9925 67.6053C51.5501 68.7763 50.5093 69.6351 49.4423 69.8953C48.3494 70.1815 47.2825 69.9994 46.3717 69.609C47.3606 69.5049 48.2974 69.2968 49.026 68.8544C49.7286 68.412 50.197 67.7614 50.3271 67.0849C50.4572 66.3823 50.249 65.7057 49.8587 65.2893C49.4684 64.8469 48.8438 64.5867 48.0371 64.4566L47.9851 64.4306C47.5167 64.3525 47.1784 63.9101 47.2565 63.4157C47.3345 63.0254 47.6468 62.7391 48.0371 62.6871Z" fill="#BF6E1D"/>
<path d="M46.0595 62.5855C46.6059 62.5335 47.2305 62.5855 47.829 62.7677C48.4275 62.9759 49 63.3402 49.4424 63.8606C50.3271 64.8755 50.4833 66.3588 50.0149 67.5037C49.5725 68.6748 48.5316 69.5335 47.4647 69.7937C46.3717 70.08 45.3048 69.8978 44.394 69.5075C45.3829 69.4294 46.3197 69.2212 47.0223 68.7528C47.7509 68.3104 48.1933 67.6599 48.3234 66.9833C48.4795 66.2807 48.2714 65.6301 47.881 65.1878C47.4907 64.7454 46.8401 64.4852 46.0595 64.3551L46.0074 64.329C45.513 64.251 45.2007 63.8086 45.2788 63.3142C45.3569 62.9238 45.6691 62.6376 46.0595 62.5855Z" fill="#DD8924"/>
<path d="M44.7844 62.5855C45.3569 62.5335 45.9554 62.5855 46.5539 62.7677C47.1524 62.9759 47.7249 63.3402 48.1673 63.8606C49.052 64.8755 49.2342 66.3588 48.7398 67.5037C48.2974 68.6748 47.2825 69.5335 46.1896 69.7937C45.0967 70.08 44.0297 69.8978 43.119 69.5075C44.1078 69.4294 45.0446 69.2212 45.7732 68.7528C46.4758 68.3104 46.9442 67.6599 47.0743 66.9833C47.2045 66.2807 46.9963 65.6301 46.6059 65.1878C46.2156 64.7454 45.5911 64.4852 44.7844 64.3551L44.7323 64.329C44.2639 64.251 43.9257 63.8086 44.0037 63.3142C44.0818 62.9238 44.3941 62.6376 44.7844 62.5855Z" fill="#F2AC30"/>
<path d="M93.6022 44.3671C93.6022 53.1626 83.0892 62.2965 71.223 62.2965C44.4201 62.2965 34.9479 46.2147 34.6617 40.5678C34.1933 31.7983 67.0334 26.75 78.9777 26.75C90.8959 26.75 93.6022 35.5976 93.6022 44.3671Z" fill="#EF3F1D"/>
<path d="M85.8476 28.0508C86.9926 30.9132 87.3829 34.2701 87.3829 37.627C87.3829 46.3965 76.8699 55.5564 64.9777 55.5564C51.9405 55.5564 42.9889 51.7311 37.2119 47.1772C41.5837 53.943 51.9145 62.2961 71.2231 62.2961C83.0892 62.2961 93.6023 53.1623 93.6023 44.3668C93.6023 37.627 92.0149 30.8352 85.8476 28.0508Z" fill="#FFFDF8"/>
<path d="M95.9442 41.7626C95.9442 49.8295 89.2305 56.3611 80.9554 56.3611C72.6803 56.3611 65.9666 49.8295 65.9666 41.7626C65.9666 33.6957 72.6803 27.1641 80.9554 27.1641C89.2305 27.1641 95.9442 33.6957 95.9442 41.7626Z" fill="#EF3F1D"/>
<path d="M94.3569 42.9359C94.3569 47.9582 89.7249 52.0437 84.026 52.0437C78.3271 52.0437 73.7212 47.9582 73.7212 42.9359C73.7212 37.9136 78.3271 33.8281 84.026 33.8281C89.7249 33.8281 94.3569 37.9136 94.3569 42.9359Z" fill="#A31332"/>
<path d="M73.5391 26.9842C73.7993 30.7835 85.4573 32.4489 90.6357 32.0846C88.4498 28.8838 84.8327 26.75 78.9777 26.75C77.4684 26.75 75.6208 26.8281 73.5391 26.9842Z" fill="#A31332"/>
<path d="M94.5911 41.8711C94.5911 46.7112 90.1673 50.6146 84.6766 50.6146C79.2119 50.6146 74.7621 46.7112 74.7621 41.8711C74.7621 37.0309 79.2119 33.1016 84.6766 33.1016C90.1673 33.1016 94.5911 37.0309 94.5911 41.8711Z" fill="#FFFDF8"/>
<path d="M91.4163 41.4805H82.5948C82.5948 41.5325 82.5948 41.5759 82.5948 41.6106C82.7769 44.0307 84.8848 45.8782 87.3048 45.7221C89.5688 45.566 91.3123 43.7184 91.4163 41.4805Z" fill="#CCE2EA"/>
<path d="M86.8364 38.6944C88.2677 38.5903 89.5167 39.6832 89.6208 41.1405C89.7249 42.5717 88.632 43.8208 87.1747 43.9248C85.7435 44.0289 84.4944 42.936 84.3903 41.4787C84.2863 40.0475 85.3792 38.7984 86.8364 38.6944Z" fill="#252538"/>
<path d="M87.0966 15.8477C84.9628 21.0261 86.6022 28.2603 90.7137 32.0596C92.8476 26.8811 91.2342 19.6209 87.0966 15.8477Z" fill="#EF3F1D"/>
<path d="M80.8773 18.6328C80.9814 24.2276 85.3532 30.2388 90.6357 32.0603C90.5316 26.4655 86.1598 20.4544 80.8773 18.6328Z" fill="#FF684A"/>
<path d="M73.0446 49.154C44.1858 37.522 25.736 9.33984 25.736 9.33984C25.736 9.33984 20.4795 17.9532 26.7249 26.2283C26.7249 26.2283 23.2119 31.8752 28.4684 36.8975C28.4684 36.8975 24.6431 43.0127 32.3457 47.0201C32.3457 47.0201 30.2379 52.3807 36.9256 55.6856C36.9256 55.6856 44.2899 70.0499 73.0446 49.154Z" fill="#A31332"/>
<path d="M39.1115 31.8244C37.7063 31.434 36.3271 31.0177 34.9219 30.7835C34.2193 30.6533 33.5167 30.5753 32.8661 30.6533C32.5278 30.6794 32.2156 30.7574 32.0594 30.9136C31.9033 31.0437 31.8513 31.2258 31.9033 31.4861C32.0334 32.0586 32.4758 32.631 32.9182 33.1255C33.3866 33.6199 33.907 34.0883 34.4535 34.5307C35.5724 35.3894 36.7955 36.092 38.0706 36.6385L39.762 37.3931L37.9665 37.4712H37.9405C37.1338 37.5232 36.2751 37.6533 35.4684 37.8355C35.078 37.9396 34.6617 38.0697 34.3234 38.2258C33.9851 38.3559 33.6728 38.6162 33.6988 38.7463C33.6468 38.8764 33.881 39.2147 34.1672 39.4489C34.4795 39.6831 34.8178 39.8913 35.1821 40.0994C35.9107 40.5158 36.6914 40.8281 37.4981 41.1664L38.2788 41.4786L37.5501 41.921C36.9516 42.2853 36.3271 42.7537 35.9107 43.3002C35.4944 43.8467 35.3903 44.4191 35.8327 44.8615C36.249 45.3299 36.9516 45.6422 37.6282 45.9024C38.3308 46.1366 39.0594 46.3188 39.7881 46.4749L41.0371 46.7612L39.8661 47.2816C39.1896 47.5939 38.4609 48.0102 38.0446 48.5307C37.9405 48.6608 37.8624 48.7909 37.8364 48.895C37.8104 48.9991 37.8364 49.1032 37.8884 49.2073C37.9925 49.4154 38.3048 49.6496 38.6431 49.8058C39.2936 50.1441 40.0743 50.3522 40.855 50.5604C41.6096 50.7426 42.4163 50.8727 43.223 51.0028L43.9516 51.1069L43.4572 51.6794C43.0929 52.1478 42.7546 52.7203 42.6245 53.2407C42.5725 53.527 42.5724 53.7612 42.6505 53.9693C42.7286 54.1775 42.9107 54.3597 43.1449 54.4898C43.6133 54.75 44.2639 54.8281 44.8884 54.8801C45.513 54.9061 46.1635 54.8801 46.8141 54.8281L47.7249 54.776L47.2044 55.5046C46.8401 55.9991 46.5278 56.7277 46.71 57.092C46.8141 57.2481 47.0483 57.4043 47.3606 57.4823C47.6728 57.5604 48.0371 57.5604 48.3754 57.5864C49.078 57.5864 49.7806 57.4823 50.5093 57.3783C51.2119 57.2742 51.9405 57.1441 52.6431 56.9879C51.2899 57.5084 49.9107 57.9768 48.4014 58.1589C48.0371 58.1849 47.6468 58.211 47.2304 58.1329C46.8401 58.0809 46.3717 57.9247 46.0594 57.4823C45.7732 57.0139 45.8513 56.4935 45.9554 56.1032C46.1115 55.6868 46.2676 55.3485 46.5278 55.0102L46.8922 55.6868C46.2156 55.7388 45.539 55.7649 44.8364 55.7128C44.1338 55.6608 43.4312 55.6087 42.7286 55.2184C42.3903 55.0362 42.052 54.724 41.8698 54.3076C41.7137 53.8913 41.7137 53.4489 41.8178 53.0585C42 52.3039 42.3643 51.7054 42.8327 51.1329L43.0929 51.8355C42.2862 51.7054 41.4535 51.5753 40.6468 51.3671C39.8401 51.1849 39.0334 50.9507 38.2267 50.5604C37.8624 50.3522 37.42 50.092 37.1338 49.5976C37.0037 49.3634 36.9516 48.9991 37.0297 48.7128C37.0817 48.4266 37.2119 48.1924 37.368 48.0102C37.6803 47.6199 38.0446 47.3597 38.4089 47.1255C38.7732 46.8913 39.1375 46.6831 39.5539 46.5009L39.6319 47.3076C38.8513 47.1515 38.0966 46.9693 37.342 46.6831C36.9516 46.553 36.5873 46.3968 36.223 46.1887C35.8587 46.0065 35.4944 45.7723 35.1821 45.408C35.0433 45.2345 34.9219 45.035 34.8178 44.8095C34.7397 44.5493 34.6877 44.289 34.7137 44.0548C34.7658 43.5344 35 43.118 35.2342 42.7797C35.7806 42.1032 36.4052 41.6087 37.1338 41.1924L37.1858 41.947C36.3791 41.6087 35.5725 41.2704 34.7918 40.8281C34.4014 40.6199 34.0111 40.3857 33.6468 40.0994C33.4646 39.9433 33.2825 39.7612 33.1264 39.553C33.0223 39.4489 32.9702 39.2928 32.9182 39.1626C32.8661 39.0065 32.8141 38.8504 32.8401 38.6422C32.8922 38.3039 33.1264 38.0177 33.3345 37.8355C33.5427 37.6794 33.7509 37.5493 33.9591 37.4452C34.4014 37.263 34.8438 37.1329 35.2602 37.0288C36.1449 36.8206 37.0037 36.6905 37.8884 36.6125L37.7843 37.4452C36.3791 36.9247 35.052 36.1961 33.881 35.2593C33.2825 34.8169 32.736 34.2965 32.2416 33.724C32.0074 33.4377 31.7732 33.1255 31.565 32.7872C31.3568 32.4749 31.1747 32.0846 31.0966 31.6422C31.0706 31.5381 31.0446 31.434 31.0706 31.3039C31.0532 31.1825 31.0706 31.0524 31.1226 30.9136C31.1747 30.6794 31.3568 30.4452 31.565 30.289C31.9814 30.0028 32.4238 29.9507 32.8141 29.9247C33.5948 29.8987 34.3234 30.0548 35.052 30.237C36.4572 30.6273 37.8104 31.1738 39.1115 31.8244Z" fill="#FF684A"/>
<path d="M55.3234 39.3481C49.0781 38.6195 54.1524 44.0582 58.2379 45.3072C58.2379 45.3072 51.316 47.2589 57.4833 49.1585C57.4833 49.1585 54.6208 52.5935 59.3308 52.2552C59.3308 52.2552 56.7546 56.2106 60.1896 56.9912C63.9108 55.2217 68.1784 52.6976 73.0446 49.1585C66.5911 46.5563 60.632 43.1214 55.3234 39.3481Z" fill="#682335"/>
</g>
<defs>
<clipPath id="clip0_2991_4240">
<rect width="111.115" height="70" fill="white"/>
</clipPath>
</defs>
</svg>
